<mxfile host="app.diagrams.net" modified="2023-06-28T21:33:20.697Z" agent="Mozilla/5.0 (Windows NT 10.0; Win64; x64) AppleWebKit/537.36 (KHTML, like Gecko) Chrome/114.0.0.0 Safari/537.36" etag="LNwgB1-_oqTNVeXzFxft" version="21.5.1" type="device">
  <diagram id="C5RBs43oDa-KdzZeNtuy" name="Page-1">
    <mxGraphModel dx="2607" dy="2134" grid="1" gridSize="10" guides="1" tooltips="1" connect="1" arrows="1" fold="1" page="1" pageScale="1" pageWidth="827" pageHeight="1169" math="0" shadow="0">
      <root>
        <mxCell id="WIyWlLk6GJQsqaUBKTNV-0" />
        <mxCell id="WIyWlLk6GJQsqaUBKTNV-1" parent="WIyWlLk6GJQsqaUBKTNV-0" />
        <mxCell id="LHPl8H4hJXhwlcDixRHR-50" style="edgeStyle=orthogonalEdgeStyle;rounded=0;orthogonalLoop=1;jettySize=auto;html=1;exitX=1;exitY=0.5;exitDx=0;exitDy=0;exitPerimeter=0;" parent="WIyWlLk6GJQsqaUBKTNV-1" source="7j_pHwnA5GzqrU9Y8oU0-10" target="LHPl8H4hJXhwlcDixRHR-43" edge="1">
          <mxGeometry relative="1" as="geometry">
            <Array as="points" />
          </mxGeometry>
        </mxCell>
        <mxCell id="LHPl8H4hJXhwlcDixRHR-55" value="wordt geregeld door" style="edgeLabel;html=1;align=center;verticalAlign=middle;resizable=0;points=[];" parent="LHPl8H4hJXhwlcDixRHR-50" vertex="1" connectable="0">
          <mxGeometry x="-0.2026" y="-4" relative="1" as="geometry">
            <mxPoint x="9" y="13" as="offset" />
          </mxGeometry>
        </mxCell>
        <mxCell id="LHPl8H4hJXhwlcDixRHR-56" value="1" style="edgeLabel;html=1;align=center;verticalAlign=middle;resizable=0;points=[];" parent="LHPl8H4hJXhwlcDixRHR-50" vertex="1" connectable="0">
          <mxGeometry x="0.7013" y="-1" relative="1" as="geometry">
            <mxPoint x="1" y="-18" as="offset" />
          </mxGeometry>
        </mxCell>
        <mxCell id="LHPl8H4hJXhwlcDixRHR-57" value="1" style="edgeLabel;html=1;align=center;verticalAlign=middle;resizable=0;points=[];" parent="LHPl8H4hJXhwlcDixRHR-50" vertex="1" connectable="0">
          <mxGeometry x="-0.241" y="2" relative="1" as="geometry">
            <mxPoint x="-39" y="-15" as="offset" />
          </mxGeometry>
        </mxCell>
        <mxCell id="7j_pHwnA5GzqrU9Y8oU0-10" value="TierList" style="swimlane;fontStyle=1;align=center;verticalAlign=top;childLayout=stackLayout;horizontal=1;startSize=26;horizontalStack=0;resizeParent=1;resizeParentMax=0;resizeLast=0;collapsible=1;marginBottom=0;whiteSpace=wrap;html=1;points=[[0,0,0,0,0],[0,0.25,0,0,0],[0,0.5,0,0,0],[0,0.75,0,0,0],[0,1,0,0,0],[0.25,0,0,0,0],[0.25,1,0,0,0],[0.5,0,0,0,0],[0.5,1,0,0,0],[0.75,0,0,0,0],[0.75,1,0,0,0],[1,0,0,0,0],[1,0.25,0,0,0],[1,0.37,0,0,0],[1,0.5,0,0,0],[1,0.75,0,0,0],[1,1,0,0,0]];" parent="WIyWlLk6GJQsqaUBKTNV-1" vertex="1">
          <mxGeometry x="345" y="910" width="240" height="424" as="geometry" />
        </mxCell>
        <mxCell id="rWxM0mJ5KbsMlF8BmwfD-30" value="- eventManager: Manager" style="text;strokeColor=none;fillColor=none;align=left;verticalAlign=top;spacingLeft=4;spacingRight=4;overflow=hidden;rotatable=0;points=[[0,0.5],[1,0.5]];portConstraint=eastwest;whiteSpace=wrap;html=1;" parent="7j_pHwnA5GzqrU9Y8oU0-10" vertex="1">
          <mxGeometry y="26" width="240" height="26" as="geometry" />
        </mxCell>
        <mxCell id="7j_pHwnA5GzqrU9Y8oU0-32" value="- Label: String" style="text;strokeColor=none;fillColor=none;align=left;verticalAlign=top;spacingLeft=4;spacingRight=4;overflow=hidden;rotatable=0;points=[[0,0.5],[1,0.5]];portConstraint=eastwest;whiteSpace=wrap;html=1;" parent="7j_pHwnA5GzqrU9Y8oU0-10" vertex="1">
          <mxGeometry y="52" width="240" height="26" as="geometry" />
        </mxCell>
        <mxCell id="7j_pHwnA5GzqrU9Y8oU0-11" value="- Rows: ArrayList" style="text;strokeColor=none;fillColor=none;align=left;verticalAlign=top;spacingLeft=4;spacingRight=4;overflow=hidden;rotatable=0;points=[[0,0.5],[1,0.5]];portConstraint=eastwest;whiteSpace=wrap;html=1;" parent="7j_pHwnA5GzqrU9Y8oU0-10" vertex="1">
          <mxGeometry y="78" width="240" height="26" as="geometry" />
        </mxCell>
        <mxCell id="7j_pHwnA5GzqrU9Y8oU0-12" value="" style="line;strokeWidth=1;fillColor=none;align=left;verticalAlign=middle;spacingTop=-1;spacingLeft=3;spacingRight=3;rotatable=0;labelPosition=right;points=[];portConstraint=eastwest;strokeColor=inherit;" parent="7j_pHwnA5GzqrU9Y8oU0-10" vertex="1">
          <mxGeometry y="104" width="240" height="8" as="geometry" />
        </mxCell>
        <mxCell id="rWxM0mJ5KbsMlF8BmwfD-11" value="+ TierList(String)" style="text;strokeColor=none;fillColor=none;align=left;verticalAlign=top;spacingLeft=4;spacingRight=4;overflow=hidden;rotatable=0;points=[[0,0.5],[1,0.5]];portConstraint=eastwest;whiteSpace=wrap;html=1;" parent="7j_pHwnA5GzqrU9Y8oU0-10" vertex="1">
          <mxGeometry y="112" width="240" height="26" as="geometry" />
        </mxCell>
        <mxCell id="LHPl8H4hJXhwlcDixRHR-16" value="+ TierList(String, boolean)" style="text;strokeColor=none;fillColor=none;align=left;verticalAlign=top;spacingLeft=4;spacingRight=4;overflow=hidden;rotatable=0;points=[[0,0.5],[1,0.5]];portConstraint=eastwest;whiteSpace=wrap;html=1;" parent="7j_pHwnA5GzqrU9Y8oU0-10" vertex="1">
          <mxGeometry y="138" width="240" height="26" as="geometry" />
        </mxCell>
        <mxCell id="7j_pHwnA5GzqrU9Y8oU0-13" value="+ createRows(String): TierReturnType" style="text;strokeColor=none;fillColor=none;align=left;verticalAlign=top;spacingLeft=4;spacingRight=4;overflow=hidden;rotatable=0;points=[[0,0.5],[1,0.5]];portConstraint=eastwest;whiteSpace=wrap;html=1;" parent="7j_pHwnA5GzqrU9Y8oU0-10" vertex="1">
          <mxGeometry y="164" width="240" height="26" as="geometry" />
        </mxCell>
        <mxCell id="YAt_v5fttDk_VhkoJ_Sc-23" value="+ getLabel(): String" style="text;strokeColor=none;fillColor=none;align=left;verticalAlign=top;spacingLeft=4;spacingRight=4;overflow=hidden;rotatable=0;points=[[0,0.5],[1,0.5]];portConstraint=eastwest;whiteSpace=wrap;html=1;" vertex="1" parent="7j_pHwnA5GzqrU9Y8oU0-10">
          <mxGeometry y="190" width="240" height="26" as="geometry" />
        </mxCell>
        <mxCell id="LHPl8H4hJXhwlcDixRHR-49" value="+ getEventManager(): EventManager" style="text;strokeColor=none;fillColor=none;align=left;verticalAlign=top;spacingLeft=4;spacingRight=4;overflow=hidden;rotatable=0;points=[[0,0.5],[1,0.5]];portConstraint=eastwest;whiteSpace=wrap;html=1;" parent="7j_pHwnA5GzqrU9Y8oU0-10" vertex="1">
          <mxGeometry y="216" width="240" height="26" as="geometry" />
        </mxCell>
        <mxCell id="7j_pHwnA5GzqrU9Y8oU0-27" value="+ getRows(): ArrayList" style="text;strokeColor=none;fillColor=none;align=left;verticalAlign=top;spacingLeft=4;spacingRight=4;overflow=hidden;rotatable=0;points=[[0,0.5],[1,0.5]];portConstraint=eastwest;whiteSpace=wrap;html=1;" parent="7j_pHwnA5GzqrU9Y8oU0-10" vertex="1">
          <mxGeometry y="242" width="240" height="26" as="geometry" />
        </mxCell>
        <mxCell id="YAt_v5fttDk_VhkoJ_Sc-19" value="+ getRow(): Row" style="text;strokeColor=none;fillColor=none;align=left;verticalAlign=top;spacingLeft=4;spacingRight=4;overflow=hidden;rotatable=0;points=[[0,0.5],[1,0.5]];portConstraint=eastwest;whiteSpace=wrap;html=1;" vertex="1" parent="7j_pHwnA5GzqrU9Y8oU0-10">
          <mxGeometry y="268" width="240" height="26" as="geometry" />
        </mxCell>
        <mxCell id="YAt_v5fttDk_VhkoJ_Sc-24" value="+ getTierReturnType(bool): TierReturnType" style="text;strokeColor=none;fillColor=none;align=left;verticalAlign=top;spacingLeft=4;spacingRight=4;overflow=hidden;rotatable=0;points=[[0,0.5],[1,0.5]];portConstraint=eastwest;whiteSpace=wrap;html=1;" vertex="1" parent="7j_pHwnA5GzqrU9Y8oU0-10">
          <mxGeometry y="294" width="240" height="26" as="geometry" />
        </mxCell>
        <mxCell id="7j_pHwnA5GzqrU9Y8oU0-25" value="+ addItem(Row, String): TierReturnType" style="text;strokeColor=none;fillColor=none;align=left;verticalAlign=top;spacingLeft=4;spacingRight=4;overflow=hidden;rotatable=0;points=[[0,0.5],[1,0.5]];portConstraint=eastwest;whiteSpace=wrap;html=1;" parent="7j_pHwnA5GzqrU9Y8oU0-10" vertex="1">
          <mxGeometry y="320" width="240" height="26" as="geometry" />
        </mxCell>
        <mxCell id="7j_pHwnA5GzqrU9Y8oU0-26" value="+ removeItem(Row): TierReturnType" style="text;strokeColor=none;fillColor=none;align=left;verticalAlign=top;spacingLeft=4;spacingRight=4;overflow=hidden;rotatable=0;points=[[0,0.5],[1,0.5]];portConstraint=eastwest;whiteSpace=wrap;html=1;" parent="7j_pHwnA5GzqrU9Y8oU0-10" vertex="1">
          <mxGeometry y="346" width="240" height="26" as="geometry" />
        </mxCell>
        <mxCell id="rWxM0mJ5KbsMlF8BmwfD-27" value="+ changeName(Row): TierReturnType" style="text;strokeColor=none;fillColor=none;align=left;verticalAlign=top;spacingLeft=4;spacingRight=4;overflow=hidden;rotatable=0;points=[[0,0.5],[1,0.5]];portConstraint=eastwest;whiteSpace=wrap;html=1;" parent="7j_pHwnA5GzqrU9Y8oU0-10" vertex="1">
          <mxGeometry y="372" width="240" height="26" as="geometry" />
        </mxCell>
        <mxCell id="YAt_v5fttDk_VhkoJ_Sc-26" value="+ commit(String): TierReturnType" style="text;strokeColor=none;fillColor=none;align=left;verticalAlign=top;spacingLeft=4;spacingRight=4;overflow=hidden;rotatable=0;points=[[0,0.5],[1,0.5]];portConstraint=eastwest;whiteSpace=wrap;html=1;" vertex="1" parent="7j_pHwnA5GzqrU9Y8oU0-10">
          <mxGeometry y="398" width="240" height="26" as="geometry" />
        </mxCell>
        <mxCell id="7j_pHwnA5GzqrU9Y8oU0-23" value="" style="edgeStyle=orthogonalEdgeStyle;rounded=0;orthogonalLoop=1;jettySize=auto;html=1;strokeColor=default;startArrow=block;startFill=0;endArrow=none;endFill=0;dashed=1;" parent="WIyWlLk6GJQsqaUBKTNV-1" source="7j_pHwnA5GzqrU9Y8oU0-16" target="7j_pHwnA5GzqrU9Y8oU0-10" edge="1">
          <mxGeometry relative="1" as="geometry" />
        </mxCell>
        <mxCell id="7j_pHwnA5GzqrU9Y8oU0-16" value="&amp;lt;&amp;lt;interface&amp;gt;&amp;gt;&lt;br&gt;ITierList" style="swimlane;fontStyle=0;childLayout=stackLayout;horizontal=1;startSize=30;fillColor=none;horizontalStack=0;resizeParent=1;resizeParentMax=0;resizeLast=0;collapsible=1;marginBottom=0;whiteSpace=wrap;html=1;" parent="WIyWlLk6GJQsqaUBKTNV-1" vertex="1">
          <mxGeometry x="350" y="750" width="230" height="134" as="geometry" />
        </mxCell>
        <mxCell id="7j_pHwnA5GzqrU9Y8oU0-19" value="+ addItem(Row, String): TierReturnType" style="text;strokeColor=none;fillColor=none;align=left;verticalAlign=top;spacingLeft=4;spacingRight=4;overflow=hidden;rotatable=0;points=[[0,0.5],[1,0.5]];portConstraint=eastwest;whiteSpace=wrap;html=1;" parent="7j_pHwnA5GzqrU9Y8oU0-16" vertex="1">
          <mxGeometry y="30" width="230" height="26" as="geometry" />
        </mxCell>
        <mxCell id="7j_pHwnA5GzqrU9Y8oU0-20" value="+ removeItem(Row): TierReturnType" style="text;strokeColor=none;fillColor=none;align=left;verticalAlign=top;spacingLeft=4;spacingRight=4;overflow=hidden;rotatable=0;points=[[0,0.5],[1,0.5]];portConstraint=eastwest;whiteSpace=wrap;html=1;" parent="7j_pHwnA5GzqrU9Y8oU0-16" vertex="1">
          <mxGeometry y="56" width="230" height="26" as="geometry" />
        </mxCell>
        <mxCell id="7j_pHwnA5GzqrU9Y8oU0-21" value="+ changeName(Row): TierReturnType" style="text;strokeColor=none;fillColor=none;align=left;verticalAlign=top;spacingLeft=4;spacingRight=4;overflow=hidden;rotatable=0;points=[[0,0.5],[1,0.5]];portConstraint=eastwest;whiteSpace=wrap;html=1;" parent="7j_pHwnA5GzqrU9Y8oU0-16" vertex="1">
          <mxGeometry y="82" width="230" height="26" as="geometry" />
        </mxCell>
        <mxCell id="rWxM0mJ5KbsMlF8BmwfD-51" value="+ commit(eventType): TierReturnType" style="text;strokeColor=none;fillColor=none;align=left;verticalAlign=top;spacingLeft=4;spacingRight=4;overflow=hidden;rotatable=0;points=[[0,0.5],[1,0.5]];portConstraint=eastwest;whiteSpace=wrap;html=1;" parent="7j_pHwnA5GzqrU9Y8oU0-16" vertex="1">
          <mxGeometry y="108" width="230" height="26" as="geometry" />
        </mxCell>
        <mxCell id="7j_pHwnA5GzqrU9Y8oU0-33" style="edgeStyle=orthogonalEdgeStyle;rounded=0;orthogonalLoop=1;jettySize=auto;html=1;exitX=1;exitY=0.5;exitDx=0;exitDy=0;entryX=0;entryY=0.5;entryDx=0;entryDy=0;" parent="WIyWlLk6GJQsqaUBKTNV-1" source="LHPl8H4hJXhwlcDixRHR-4" target="7j_pHwnA5GzqrU9Y8oU0-20" edge="1">
          <mxGeometry relative="1" as="geometry">
            <mxPoint x="347.93000000000006" y="755.0099999999998" as="targetPoint" />
          </mxGeometry>
        </mxCell>
        <mxCell id="7j_pHwnA5GzqrU9Y8oU0-42" value="Gebruikt" style="edgeLabel;html=1;align=center;verticalAlign=middle;resizable=0;points=[];" parent="7j_pHwnA5GzqrU9Y8oU0-33" vertex="1" connectable="0">
          <mxGeometry x="-0.174" y="1" relative="1" as="geometry">
            <mxPoint y="-9" as="offset" />
          </mxGeometry>
        </mxCell>
        <mxCell id="rWxM0mJ5KbsMlF8BmwfD-12" value="1" style="edgeLabel;html=1;align=center;verticalAlign=middle;resizable=0;points=[];" parent="7j_pHwnA5GzqrU9Y8oU0-33" vertex="1" connectable="0">
          <mxGeometry x="0.7255" y="1" relative="1" as="geometry">
            <mxPoint y="-12" as="offset" />
          </mxGeometry>
        </mxCell>
        <mxCell id="rWxM0mJ5KbsMlF8BmwfD-13" value="0..1" style="edgeLabel;html=1;align=center;verticalAlign=middle;resizable=0;points=[];" parent="7j_pHwnA5GzqrU9Y8oU0-33" vertex="1" connectable="0">
          <mxGeometry x="-0.739" relative="1" as="geometry">
            <mxPoint x="-16" y="15" as="offset" />
          </mxGeometry>
        </mxCell>
        <mxCell id="rWxM0mJ5KbsMlF8BmwfD-29" style="edgeStyle=orthogonalEdgeStyle;rounded=0;orthogonalLoop=1;jettySize=auto;html=1;endArrow=classic;endFill=1;" parent="WIyWlLk6GJQsqaUBKTNV-1" source="7j_pHwnA5GzqrU9Y8oU0-28" target="rWxM0mJ5KbsMlF8BmwfD-20" edge="1">
          <mxGeometry relative="1" as="geometry" />
        </mxCell>
        <mxCell id="YAt_v5fttDk_VhkoJ_Sc-10" value="1" style="edgeLabel;html=1;align=center;verticalAlign=middle;resizable=0;points=[];" vertex="1" connectable="0" parent="rWxM0mJ5KbsMlF8BmwfD-29">
          <mxGeometry x="0.7237" y="-2" relative="1" as="geometry">
            <mxPoint x="-9" y="-9" as="offset" />
          </mxGeometry>
        </mxCell>
        <mxCell id="YAt_v5fttDk_VhkoJ_Sc-11" value="krijgt vlaggen van" style="edgeLabel;html=1;align=center;verticalAlign=middle;resizable=0;points=[];" vertex="1" connectable="0" parent="rWxM0mJ5KbsMlF8BmwfD-29">
          <mxGeometry x="-0.395" y="-3" relative="1" as="geometry">
            <mxPoint x="-23" y="15" as="offset" />
          </mxGeometry>
        </mxCell>
        <mxCell id="YAt_v5fttDk_VhkoJ_Sc-12" value="1" style="edgeLabel;html=1;align=center;verticalAlign=middle;resizable=0;points=[];" vertex="1" connectable="0" parent="rWxM0mJ5KbsMlF8BmwfD-29">
          <mxGeometry x="-0.746" y="1" relative="1" as="geometry">
            <mxPoint x="3" y="-13" as="offset" />
          </mxGeometry>
        </mxCell>
        <mxCell id="YAt_v5fttDk_VhkoJ_Sc-27" style="edgeStyle=orthogonalEdgeStyle;rounded=0;orthogonalLoop=1;jettySize=auto;html=1;entryX=0.5;entryY=0;entryDx=0;entryDy=0;endArrow=open;endFill=0;dashed=1;" edge="1" parent="WIyWlLk6GJQsqaUBKTNV-1" source="7j_pHwnA5GzqrU9Y8oU0-28" target="7j_pHwnA5GzqrU9Y8oU0-43">
          <mxGeometry relative="1" as="geometry">
            <Array as="points">
              <mxPoint x="825" y="680" />
            </Array>
          </mxGeometry>
        </mxCell>
        <mxCell id="YAt_v5fttDk_VhkoJ_Sc-28" value="Valideert gebaseerd op" style="edgeLabel;html=1;align=center;verticalAlign=middle;resizable=0;points=[];" vertex="1" connectable="0" parent="YAt_v5fttDk_VhkoJ_Sc-27">
          <mxGeometry x="-0.2152" y="1" relative="1" as="geometry">
            <mxPoint x="50" y="-20" as="offset" />
          </mxGeometry>
        </mxCell>
        <mxCell id="7j_pHwnA5GzqrU9Y8oU0-28" value="TierListPageController" style="swimlane;fontStyle=1;align=center;verticalAlign=top;childLayout=stackLayout;horizontal=1;startSize=26;horizontalStack=0;resizeParent=1;resizeParentMax=0;resizeLast=0;collapsible=1;marginBottom=0;whiteSpace=wrap;html=1;" parent="WIyWlLk6GJQsqaUBKTNV-1" vertex="1">
          <mxGeometry x="-7.5" y="620" width="255" height="216" as="geometry" />
        </mxCell>
        <mxCell id="7j_pHwnA5GzqrU9Y8oU0-29" value="- tracker: Tracker" style="text;strokeColor=none;fillColor=none;align=left;verticalAlign=top;spacingLeft=4;spacingRight=4;overflow=hidden;rotatable=0;points=[[0,0.5],[1,0.5]];portConstraint=eastwest;whiteSpace=wrap;html=1;" parent="7j_pHwnA5GzqrU9Y8oU0-28" vertex="1">
          <mxGeometry y="26" width="255" height="26" as="geometry" />
        </mxCell>
        <mxCell id="YAt_v5fttDk_VhkoJ_Sc-9" value="- flagger: IFlagger" style="text;strokeColor=none;fillColor=none;align=left;verticalAlign=top;spacingLeft=4;spacingRight=4;overflow=hidden;rotatable=0;points=[[0,0.5],[1,0.5]];portConstraint=eastwest;whiteSpace=wrap;html=1;" vertex="1" parent="7j_pHwnA5GzqrU9Y8oU0-28">
          <mxGeometry y="52" width="255" height="26" as="geometry" />
        </mxCell>
        <mxCell id="YAt_v5fttDk_VhkoJ_Sc-7" value="- unassignedFlagsView: listView" style="text;strokeColor=none;fillColor=none;align=left;verticalAlign=top;spacingLeft=4;spacingRight=4;overflow=hidden;rotatable=0;points=[[0,0.5],[1,0.5]];portConstraint=eastwest;whiteSpace=wrap;html=1;" vertex="1" parent="7j_pHwnA5GzqrU9Y8oU0-28">
          <mxGeometry y="78" width="255" height="26" as="geometry" />
        </mxCell>
        <mxCell id="YAt_v5fttDk_VhkoJ_Sc-8" value="- dropSpots: Map&amp;lt;String, List&amp;lt;ImageView&amp;gt;&amp;gt;" style="text;strokeColor=none;fillColor=none;align=left;verticalAlign=top;spacingLeft=4;spacingRight=4;overflow=hidden;rotatable=0;points=[[0,0.5],[1,0.5]];portConstraint=eastwest;whiteSpace=wrap;html=1;" vertex="1" parent="7j_pHwnA5GzqrU9Y8oU0-28">
          <mxGeometry y="104" width="255" height="26" as="geometry" />
        </mxCell>
        <mxCell id="7j_pHwnA5GzqrU9Y8oU0-30" value="" style="line;strokeWidth=1;fillColor=none;align=left;verticalAlign=middle;spacingTop=-1;spacingLeft=3;spacingRight=3;rotatable=0;labelPosition=right;points=[];portConstraint=eastwest;strokeColor=inherit;" parent="7j_pHwnA5GzqrU9Y8oU0-28" vertex="1">
          <mxGeometry y="130" width="255" height="8" as="geometry" />
        </mxCell>
        <mxCell id="YAt_v5fttDk_VhkoJ_Sc-16" value="+ initialize()" style="text;strokeColor=none;fillColor=none;align=left;verticalAlign=top;spacingLeft=4;spacingRight=4;overflow=hidden;rotatable=0;points=[[0,0.5],[1,0.5]];portConstraint=eastwest;whiteSpace=wrap;html=1;" vertex="1" parent="7j_pHwnA5GzqrU9Y8oU0-28">
          <mxGeometry y="138" width="255" height="26" as="geometry" />
        </mxCell>
        <mxCell id="YAt_v5fttDk_VhkoJ_Sc-17" value="+ createView(IFlagger, ITierList)" style="text;strokeColor=none;fillColor=none;align=left;verticalAlign=top;spacingLeft=4;spacingRight=4;overflow=hidden;rotatable=0;points=[[0,0.5],[1,0.5]];portConstraint=eastwest;whiteSpace=wrap;html=1;" vertex="1" parent="7j_pHwnA5GzqrU9Y8oU0-28">
          <mxGeometry y="164" width="255" height="26" as="geometry" />
        </mxCell>
        <mxCell id="7j_pHwnA5GzqrU9Y8oU0-31" value="+ flag(IFlagger, String)" style="text;strokeColor=none;fillColor=none;align=left;verticalAlign=top;spacingLeft=4;spacingRight=4;overflow=hidden;rotatable=0;points=[[0,0.5],[1,0.5]];portConstraint=eastwest;whiteSpace=wrap;html=1;" parent="7j_pHwnA5GzqrU9Y8oU0-28" vertex="1">
          <mxGeometry y="190" width="255" height="26" as="geometry" />
        </mxCell>
        <mxCell id="YAt_v5fttDk_VhkoJ_Sc-47" style="edgeStyle=orthogonalEdgeStyle;rounded=0;orthogonalLoop=1;jettySize=auto;html=1;startArrow=open;startFill=0;endArrow=none;endFill=0;dashed=1;" edge="1" parent="WIyWlLk6GJQsqaUBKTNV-1" source="7j_pHwnA5GzqrU9Y8oU0-34" target="LHPl8H4hJXhwlcDixRHR-29">
          <mxGeometry relative="1" as="geometry">
            <Array as="points">
              <mxPoint x="510" y="1670" />
              <mxPoint x="1115" y="1670" />
            </Array>
          </mxGeometry>
        </mxCell>
        <mxCell id="7j_pHwnA5GzqrU9Y8oU0-34" value="Row" style="swimlane;fontStyle=1;align=center;verticalAlign=top;childLayout=stackLayout;horizontal=1;startSize=26;horizontalStack=0;resizeParent=1;resizeParentMax=0;resizeLast=0;collapsible=1;marginBottom=0;whiteSpace=wrap;html=1;" parent="WIyWlLk6GJQsqaUBKTNV-1" vertex="1">
          <mxGeometry x="430" y="1440" width="160" height="138" as="geometry" />
        </mxCell>
        <mxCell id="7j_pHwnA5GzqrU9Y8oU0-35" value="- Label: String" style="text;strokeColor=none;fillColor=none;align=left;verticalAlign=top;spacingLeft=4;spacingRight=4;overflow=hidden;rotatable=0;points=[[0,0.5],[1,0.5]];portConstraint=eastwest;whiteSpace=wrap;html=1;" parent="7j_pHwnA5GzqrU9Y8oU0-34" vertex="1">
          <mxGeometry y="26" width="160" height="26" as="geometry" />
        </mxCell>
        <mxCell id="rWxM0mJ5KbsMlF8BmwfD-19" value="- Countries: ArrayList" style="text;strokeColor=none;fillColor=none;align=left;verticalAlign=top;spacingLeft=4;spacingRight=4;overflow=hidden;rotatable=0;points=[[0,0.5],[1,0.5]];portConstraint=eastwest;whiteSpace=wrap;html=1;" parent="7j_pHwnA5GzqrU9Y8oU0-34" vertex="1">
          <mxGeometry y="52" width="160" height="26" as="geometry" />
        </mxCell>
        <mxCell id="7j_pHwnA5GzqrU9Y8oU0-36" value="" style="line;strokeWidth=1;fillColor=none;align=left;verticalAlign=middle;spacingTop=-1;spacingLeft=3;spacingRight=3;rotatable=0;labelPosition=right;points=[];portConstraint=eastwest;strokeColor=inherit;" parent="7j_pHwnA5GzqrU9Y8oU0-34" vertex="1">
          <mxGeometry y="78" width="160" height="8" as="geometry" />
        </mxCell>
        <mxCell id="7j_pHwnA5GzqrU9Y8oU0-37" value="+ setLabel(String)" style="text;strokeColor=none;fillColor=none;align=left;verticalAlign=top;spacingLeft=4;spacingRight=4;overflow=hidden;rotatable=0;points=[[0,0.5],[1,0.5]];portConstraint=eastwest;whiteSpace=wrap;html=1;" parent="7j_pHwnA5GzqrU9Y8oU0-34" vertex="1">
          <mxGeometry y="86" width="160" height="26" as="geometry" />
        </mxCell>
        <mxCell id="7j_pHwnA5GzqrU9Y8oU0-38" value="+ getLabel(): String&amp;nbsp;" style="text;strokeColor=none;fillColor=none;align=left;verticalAlign=top;spacingLeft=4;spacingRight=4;overflow=hidden;rotatable=0;points=[[0,0.5],[1,0.5]];portConstraint=eastwest;whiteSpace=wrap;html=1;" parent="7j_pHwnA5GzqrU9Y8oU0-34" vertex="1">
          <mxGeometry y="112" width="160" height="26" as="geometry" />
        </mxCell>
        <mxCell id="7j_pHwnA5GzqrU9Y8oU0-40" style="edgeStyle=orthogonalEdgeStyle;rounded=0;orthogonalLoop=1;jettySize=auto;html=1;" parent="WIyWlLk6GJQsqaUBKTNV-1" source="7j_pHwnA5GzqrU9Y8oU0-10" target="7j_pHwnA5GzqrU9Y8oU0-34" edge="1">
          <mxGeometry relative="1" as="geometry">
            <mxPoint x="580" y="1175" as="sourcePoint" />
            <mxPoint x="700" y="1169" as="targetPoint" />
            <Array as="points">
              <mxPoint x="510" y="1330" />
              <mxPoint x="510" y="1330" />
            </Array>
          </mxGeometry>
        </mxCell>
        <mxCell id="rWxM0mJ5KbsMlF8BmwfD-14" value="Bestaat uit" style="edgeLabel;html=1;align=center;verticalAlign=middle;resizable=0;points=[];" parent="7j_pHwnA5GzqrU9Y8oU0-40" vertex="1" connectable="0">
          <mxGeometry x="-0.2334" y="1" relative="1" as="geometry">
            <mxPoint x="-6" y="9" as="offset" />
          </mxGeometry>
        </mxCell>
        <mxCell id="rWxM0mJ5KbsMlF8BmwfD-15" value="0..*" style="edgeLabel;html=1;align=center;verticalAlign=middle;resizable=0;points=[];" parent="7j_pHwnA5GzqrU9Y8oU0-40" vertex="1" connectable="0">
          <mxGeometry x="0.7254" y="-4" relative="1" as="geometry">
            <mxPoint x="-16" y="5" as="offset" />
          </mxGeometry>
        </mxCell>
        <mxCell id="rWxM0mJ5KbsMlF8BmwfD-16" value="1" style="edgeLabel;html=1;align=center;verticalAlign=middle;resizable=0;points=[];" parent="7j_pHwnA5GzqrU9Y8oU0-40" vertex="1" connectable="0">
          <mxGeometry x="-0.7265" y="2" relative="1" as="geometry">
            <mxPoint x="8" y="-4" as="offset" />
          </mxGeometry>
        </mxCell>
        <mxCell id="rWxM0mJ5KbsMlF8BmwfD-4" style="edgeStyle=orthogonalEdgeStyle;rounded=0;orthogonalLoop=1;jettySize=auto;html=1;exitX=0;exitY=0.5;exitDx=0;exitDy=0;dashed=1;endArrow=open;endFill=0;entryX=1;entryY=0.5;entryDx=0;entryDy=0;" parent="WIyWlLk6GJQsqaUBKTNV-1" source="7j_pHwnA5GzqrU9Y8oU0-46" target="7j_pHwnA5GzqrU9Y8oU0-32" edge="1">
          <mxGeometry relative="1" as="geometry">
            <mxPoint x="590" y="1030" as="targetPoint" />
            <Array as="points">
              <mxPoint x="707" y="971" />
              <mxPoint x="707" y="975" />
            </Array>
          </mxGeometry>
        </mxCell>
        <mxCell id="7j_pHwnA5GzqrU9Y8oU0-43" value="TierReturnType" style="swimlane;fontStyle=1;align=center;verticalAlign=top;childLayout=stackLayout;horizontal=1;startSize=26;horizontalStack=0;resizeParent=1;resizeParentMax=0;resizeLast=0;collapsible=1;marginBottom=0;whiteSpace=wrap;html=1;" parent="WIyWlLk6GJQsqaUBKTNV-1" vertex="1">
          <mxGeometry x="710" y="820" width="230" height="190" as="geometry" />
        </mxCell>
        <mxCell id="7j_pHwnA5GzqrU9Y8oU0-44" value="- Label: String" style="text;strokeColor=none;fillColor=none;align=left;verticalAlign=top;spacingLeft=4;spacingRight=4;overflow=hidden;rotatable=0;points=[[0,0.5],[1,0.5]];portConstraint=eastwest;whiteSpace=wrap;html=1;" parent="7j_pHwnA5GzqrU9Y8oU0-43" vertex="1">
          <mxGeometry y="26" width="230" height="26" as="geometry" />
        </mxCell>
        <mxCell id="rWxM0mJ5KbsMlF8BmwfD-0" value="+ SUCCESS: TierReturnType" style="text;strokeColor=none;fillColor=none;align=left;verticalAlign=top;spacingLeft=4;spacingRight=4;overflow=hidden;rotatable=0;points=[[0,0.5],[1,0.5]];portConstraint=eastwest;whiteSpace=wrap;html=1;" parent="7j_pHwnA5GzqrU9Y8oU0-43" vertex="1">
          <mxGeometry y="52" width="230" height="26" as="geometry" />
        </mxCell>
        <mxCell id="rWxM0mJ5KbsMlF8BmwfD-1" value="+ ERROR: TierReturnType" style="text;strokeColor=none;fillColor=none;align=left;verticalAlign=top;spacingLeft=4;spacingRight=4;overflow=hidden;rotatable=0;points=[[0,0.5],[1,0.5]];portConstraint=eastwest;whiteSpace=wrap;html=1;" parent="7j_pHwnA5GzqrU9Y8oU0-43" vertex="1">
          <mxGeometry y="78" width="230" height="26" as="geometry" />
        </mxCell>
        <mxCell id="rWxM0mJ5KbsMlF8BmwfD-2" value="+ NOTFOUND: TierReturnType" style="text;strokeColor=none;fillColor=none;align=left;verticalAlign=top;spacingLeft=4;spacingRight=4;overflow=hidden;rotatable=0;points=[[0,0.5],[1,0.5]];portConstraint=eastwest;whiteSpace=wrap;html=1;" parent="7j_pHwnA5GzqrU9Y8oU0-43" vertex="1">
          <mxGeometry y="104" width="230" height="26" as="geometry" />
        </mxCell>
        <mxCell id="7j_pHwnA5GzqrU9Y8oU0-45" value="" style="line;strokeWidth=1;fillColor=none;align=left;verticalAlign=middle;spacingTop=-1;spacingLeft=3;spacingRight=3;rotatable=0;labelPosition=right;points=[];portConstraint=eastwest;strokeColor=inherit;" parent="7j_pHwnA5GzqrU9Y8oU0-43" vertex="1">
          <mxGeometry y="130" width="230" height="8" as="geometry" />
        </mxCell>
        <mxCell id="7j_pHwnA5GzqrU9Y8oU0-46" value="+ TierReturnType(Label)" style="text;strokeColor=none;fillColor=none;align=left;verticalAlign=top;spacingLeft=4;spacingRight=4;overflow=hidden;rotatable=0;points=[[0,0.5],[1,0.5]];portConstraint=eastwest;whiteSpace=wrap;html=1;" parent="7j_pHwnA5GzqrU9Y8oU0-43" vertex="1">
          <mxGeometry y="138" width="230" height="26" as="geometry" />
        </mxCell>
        <mxCell id="rWxM0mJ5KbsMlF8BmwfD-10" value="+ getLabel(): String" style="text;strokeColor=none;fillColor=none;align=left;verticalAlign=top;spacingLeft=4;spacingRight=4;overflow=hidden;rotatable=0;points=[[0,0.5],[1,0.5]];portConstraint=eastwest;whiteSpace=wrap;html=1;" parent="7j_pHwnA5GzqrU9Y8oU0-43" vertex="1">
          <mxGeometry y="164" width="230" height="26" as="geometry" />
        </mxCell>
        <mxCell id="Jdv2EIbuGDHVUuumFUXx-16" style="edgeStyle=orthogonalEdgeStyle;rounded=0;orthogonalLoop=1;jettySize=auto;html=1;startArrow=open;startFill=0;endArrow=none;endFill=0;dashed=1;" parent="WIyWlLk6GJQsqaUBKTNV-1" source="rWxM0mJ5KbsMlF8BmwfD-20" target="rWxM0mJ5KbsMlF8BmwfD-68" edge="1">
          <mxGeometry relative="1" as="geometry">
            <mxPoint x="-100" y="1369" as="targetPoint" />
            <Array as="points">
              <mxPoint x="-340" y="757" />
              <mxPoint x="-340" y="1420" />
            </Array>
          </mxGeometry>
        </mxCell>
        <mxCell id="LHPl8H4hJXhwlcDixRHR-52" value="wordt gevalideerd door" style="edgeLabel;html=1;align=center;verticalAlign=middle;resizable=0;points=[];" parent="Jdv2EIbuGDHVUuumFUXx-16" vertex="1" connectable="0">
          <mxGeometry x="0.0473" relative="1" as="geometry">
            <mxPoint as="offset" />
          </mxGeometry>
        </mxCell>
        <mxCell id="rWxM0mJ5KbsMlF8BmwfD-20" value="&amp;lt;&amp;lt;interface&amp;gt;&amp;gt;&lt;br&gt;IFlagger" style="swimlane;fontStyle=0;childLayout=stackLayout;horizontal=1;startSize=30;fillColor=none;horizontalStack=0;resizeParent=1;resizeParentMax=0;resizeLast=0;collapsible=1;marginBottom=0;whiteSpace=wrap;html=1;" parent="WIyWlLk6GJQsqaUBKTNV-1" vertex="1">
          <mxGeometry x="-300" y="674" width="190" height="108" as="geometry" />
        </mxCell>
        <mxCell id="Jdv2EIbuGDHVUuumFUXx-12" value="+ getValue(String): String" style="text;strokeColor=none;fillColor=none;align=left;verticalAlign=top;spacingLeft=4;spacingRight=4;overflow=hidden;rotatable=0;points=[[0,0.5],[1,0.5]];portConstraint=eastwest;whiteSpace=wrap;html=1;" parent="rWxM0mJ5KbsMlF8BmwfD-20" vertex="1">
          <mxGeometry y="30" width="190" height="26" as="geometry" />
        </mxCell>
        <mxCell id="YAt_v5fttDk_VhkoJ_Sc-18" value="+ getKeySet(): ArrayList&amp;lt;String&amp;gt;" style="text;strokeColor=none;fillColor=none;align=left;verticalAlign=top;spacingLeft=4;spacingRight=4;overflow=hidden;rotatable=0;points=[[0,0.5],[1,0.5]];portConstraint=eastwest;whiteSpace=wrap;html=1;" vertex="1" parent="rWxM0mJ5KbsMlF8BmwfD-20">
          <mxGeometry y="56" width="190" height="26" as="geometry" />
        </mxCell>
        <mxCell id="rWxM0mJ5KbsMlF8BmwfD-25" value="+ hasKey(String): boolean" style="text;strokeColor=none;fillColor=none;align=left;verticalAlign=top;spacingLeft=4;spacingRight=4;overflow=hidden;rotatable=0;points=[[0,0.5],[1,0.5]];portConstraint=eastwest;whiteSpace=wrap;html=1;" parent="rWxM0mJ5KbsMlF8BmwfD-20" vertex="1">
          <mxGeometry y="82" width="190" height="26" as="geometry" />
        </mxCell>
        <mxCell id="rWxM0mJ5KbsMlF8BmwfD-83" style="edgeStyle=orthogonalEdgeStyle;rounded=0;orthogonalLoop=1;jettySize=auto;html=1;startArrow=open;startFill=0;dashed=1;endArrow=none;endFill=0;exitX=0.5;exitY=0;exitDx=0;exitDy=0;" parent="WIyWlLk6GJQsqaUBKTNV-1" source="rWxM0mJ5KbsMlF8BmwfD-68" target="Jdv2EIbuGDHVUuumFUXx-6" edge="1">
          <mxGeometry relative="1" as="geometry">
            <mxPoint x="160" y="1153" as="sourcePoint" />
          </mxGeometry>
        </mxCell>
        <mxCell id="LHPl8H4hJXhwlcDixRHR-54" value="Bestuurt" style="edgeLabel;html=1;align=center;verticalAlign=middle;resizable=0;points=[];" parent="rWxM0mJ5KbsMlF8BmwfD-83" vertex="1" connectable="0">
          <mxGeometry x="-0.452" y="-4" relative="1" as="geometry">
            <mxPoint x="-4" y="-11" as="offset" />
          </mxGeometry>
        </mxCell>
        <mxCell id="rWxM0mJ5KbsMlF8BmwfD-52" style="edgeStyle=orthogonalEdgeStyle;rounded=0;orthogonalLoop=1;jettySize=auto;html=1;endArrow=open;endFill=0;dashed=1;" parent="WIyWlLk6GJQsqaUBKTNV-1" source="rWxM0mJ5KbsMlF8BmwfD-40" target="rWxM0mJ5KbsMlF8BmwfD-47" edge="1">
          <mxGeometry relative="1" as="geometry" />
        </mxCell>
        <mxCell id="rWxM0mJ5KbsMlF8BmwfD-40" value="&amp;lt;&amp;lt;interface&amp;gt;&amp;gt;&lt;br&gt;Observable" style="swimlane;fontStyle=0;childLayout=stackLayout;horizontal=1;startSize=30;fillColor=none;horizontalStack=0;resizeParent=1;resizeParentMax=0;resizeLast=0;collapsible=1;marginBottom=0;whiteSpace=wrap;html=1;" parent="WIyWlLk6GJQsqaUBKTNV-1" vertex="1">
          <mxGeometry x="1000" y="1150" width="230" height="108" as="geometry" />
        </mxCell>
        <mxCell id="rWxM0mJ5KbsMlF8BmwfD-41" value="+ addListener(Observer, String)" style="text;strokeColor=none;fillColor=none;align=left;verticalAlign=top;spacingLeft=4;spacingRight=4;overflow=hidden;rotatable=0;points=[[0,0.5],[1,0.5]];portConstraint=eastwest;whiteSpace=wrap;html=1;" parent="rWxM0mJ5KbsMlF8BmwfD-40" vertex="1">
          <mxGeometry y="30" width="230" height="26" as="geometry" />
        </mxCell>
        <mxCell id="rWxM0mJ5KbsMlF8BmwfD-42" value="+ removeListener(Observer, String)" style="text;strokeColor=none;fillColor=none;align=left;verticalAlign=top;spacingLeft=4;spacingRight=4;overflow=hidden;rotatable=0;points=[[0,0.5],[1,0.5]];portConstraint=eastwest;whiteSpace=wrap;html=1;" parent="rWxM0mJ5KbsMlF8BmwfD-40" vertex="1">
          <mxGeometry y="56" width="230" height="26" as="geometry" />
        </mxCell>
        <mxCell id="rWxM0mJ5KbsMlF8BmwfD-46" value="+ alert(String, Object)" style="text;strokeColor=none;fillColor=none;align=left;verticalAlign=top;spacingLeft=4;spacingRight=4;overflow=hidden;rotatable=0;points=[[0,0.5],[1,0.5]];portConstraint=eastwest;whiteSpace=wrap;html=1;" parent="rWxM0mJ5KbsMlF8BmwfD-40" vertex="1">
          <mxGeometry y="82" width="230" height="26" as="geometry" />
        </mxCell>
        <mxCell id="rWxM0mJ5KbsMlF8BmwfD-47" value="&amp;lt;&amp;lt;interface&amp;gt;&amp;gt;&lt;br&gt;Observer&amp;lt;T&amp;gt;" style="swimlane;fontStyle=0;childLayout=stackLayout;horizontal=1;startSize=30;fillColor=none;horizontalStack=0;resizeParent=1;resizeParentMax=0;resizeLast=0;collapsible=1;marginBottom=0;whiteSpace=wrap;html=1;" parent="WIyWlLk6GJQsqaUBKTNV-1" vertex="1">
          <mxGeometry x="1000" y="1320" width="230" height="56" as="geometry" />
        </mxCell>
        <mxCell id="rWxM0mJ5KbsMlF8BmwfD-48" value="+ push(T): boolean" style="text;strokeColor=none;fillColor=none;align=left;verticalAlign=top;spacingLeft=4;spacingRight=4;overflow=hidden;rotatable=0;points=[[0,0.5],[1,0.5]];portConstraint=eastwest;whiteSpace=wrap;html=1;" parent="rWxM0mJ5KbsMlF8BmwfD-47" vertex="1">
          <mxGeometry y="30" width="230" height="26" as="geometry" />
        </mxCell>
        <mxCell id="rWxM0mJ5KbsMlF8BmwfD-58" style="edgeStyle=orthogonalEdgeStyle;rounded=0;orthogonalLoop=1;jettySize=auto;html=1;endArrow=block;endFill=0;" parent="WIyWlLk6GJQsqaUBKTNV-1" source="rWxM0mJ5KbsMlF8BmwfD-53" target="LHPl8H4hJXhwlcDixRHR-29" edge="1">
          <mxGeometry relative="1" as="geometry" />
        </mxCell>
        <mxCell id="rWxM0mJ5KbsMlF8BmwfD-53" value="ExcelPusher" style="swimlane;fontStyle=1;align=center;verticalAlign=top;childLayout=stackLayout;horizontal=1;startSize=26;horizontalStack=0;resizeParent=1;resizeParentMax=0;resizeLast=0;collapsible=1;marginBottom=0;whiteSpace=wrap;html=1;" parent="WIyWlLk6GJQsqaUBKTNV-1" vertex="1">
          <mxGeometry x="715" y="1500" width="160" height="104" as="geometry" />
        </mxCell>
        <mxCell id="rWxM0mJ5KbsMlF8BmwfD-56" value="+ push(TierList): boolean" style="text;strokeColor=none;fillColor=none;align=left;verticalAlign=top;spacingLeft=4;spacingRight=4;overflow=hidden;rotatable=0;points=[[0,0.5],[1,0.5]];portConstraint=eastwest;whiteSpace=wrap;html=1;" parent="rWxM0mJ5KbsMlF8BmwfD-53" vertex="1">
          <mxGeometry y="26" width="160" height="26" as="geometry" />
        </mxCell>
        <mxCell id="YAt_v5fttDk_VhkoJ_Sc-5" value="- locate(String label): Object" style="text;strokeColor=none;fillColor=none;align=left;verticalAlign=top;spacingLeft=4;spacingRight=4;overflow=hidden;rotatable=0;points=[[0,0.5],[1,0.5]];portConstraint=eastwest;whiteSpace=wrap;html=1;" vertex="1" parent="rWxM0mJ5KbsMlF8BmwfD-53">
          <mxGeometry y="52" width="160" height="26" as="geometry" />
        </mxCell>
        <mxCell id="YAt_v5fttDk_VhkoJ_Sc-6" value="- write(Row): boolean" style="text;strokeColor=none;fillColor=none;align=left;verticalAlign=top;spacingLeft=4;spacingRight=4;overflow=hidden;rotatable=0;points=[[0,0.5],[1,0.5]];portConstraint=eastwest;whiteSpace=wrap;html=1;" vertex="1" parent="rWxM0mJ5KbsMlF8BmwfD-53">
          <mxGeometry y="78" width="160" height="26" as="geometry" />
        </mxCell>
        <mxCell id="rWxM0mJ5KbsMlF8BmwfD-63" style="edgeStyle=orthogonalEdgeStyle;rounded=0;orthogonalLoop=1;jettySize=auto;html=1;endArrow=block;endFill=0;" parent="WIyWlLk6GJQsqaUBKTNV-1" source="rWxM0mJ5KbsMlF8BmwfD-59" target="LHPl8H4hJXhwlcDixRHR-29" edge="1">
          <mxGeometry relative="1" as="geometry" />
        </mxCell>
        <mxCell id="rWxM0mJ5KbsMlF8BmwfD-59" value="CSVPusher" style="swimlane;fontStyle=1;align=center;verticalAlign=top;childLayout=stackLayout;horizontal=1;startSize=26;horizontalStack=0;resizeParent=1;resizeParentMax=0;resizeLast=0;collapsible=1;marginBottom=0;whiteSpace=wrap;html=1;" parent="WIyWlLk6GJQsqaUBKTNV-1" vertex="1">
          <mxGeometry x="715" y="1380" width="160" height="104" as="geometry" />
        </mxCell>
        <mxCell id="rWxM0mJ5KbsMlF8BmwfD-62" value="+ push(TierList): boolean" style="text;strokeColor=none;fillColor=none;align=left;verticalAlign=top;spacingLeft=4;spacingRight=4;overflow=hidden;rotatable=0;points=[[0,0.5],[1,0.5]];portConstraint=eastwest;whiteSpace=wrap;html=1;" parent="rWxM0mJ5KbsMlF8BmwfD-59" vertex="1">
          <mxGeometry y="26" width="160" height="26" as="geometry" />
        </mxCell>
        <mxCell id="YAt_v5fttDk_VhkoJ_Sc-3" value="- locate(String label): Object" style="text;strokeColor=none;fillColor=none;align=left;verticalAlign=top;spacingLeft=4;spacingRight=4;overflow=hidden;rotatable=0;points=[[0,0.5],[1,0.5]];portConstraint=eastwest;whiteSpace=wrap;html=1;" vertex="1" parent="rWxM0mJ5KbsMlF8BmwfD-59">
          <mxGeometry y="52" width="160" height="26" as="geometry" />
        </mxCell>
        <mxCell id="YAt_v5fttDk_VhkoJ_Sc-4" value="- write(Row): boolean" style="text;strokeColor=none;fillColor=none;align=left;verticalAlign=top;spacingLeft=4;spacingRight=4;overflow=hidden;rotatable=0;points=[[0,0.5],[1,0.5]];portConstraint=eastwest;whiteSpace=wrap;html=1;" vertex="1" parent="rWxM0mJ5KbsMlF8BmwfD-59">
          <mxGeometry y="78" width="160" height="26" as="geometry" />
        </mxCell>
        <mxCell id="LHPl8H4hJXhwlcDixRHR-27" style="edgeStyle=orthogonalEdgeStyle;rounded=0;orthogonalLoop=1;jettySize=auto;html=1;dashed=1;" parent="WIyWlLk6GJQsqaUBKTNV-1" source="rWxM0mJ5KbsMlF8BmwfD-64" target="LHPl8H4hJXhwlcDixRHR-1" edge="1">
          <mxGeometry relative="1" as="geometry" />
        </mxCell>
        <mxCell id="LHPl8H4hJXhwlcDixRHR-28" value="zet huidig" style="edgeLabel;html=1;align=center;verticalAlign=middle;resizable=0;points=[];" parent="LHPl8H4hJXhwlcDixRHR-27" vertex="1" connectable="0">
          <mxGeometry x="-0.283" y="-2" relative="1" as="geometry">
            <mxPoint x="2" y="-15" as="offset" />
          </mxGeometry>
        </mxCell>
        <mxCell id="rWxM0mJ5KbsMlF8BmwfD-64" value="NavigatorPageController" style="swimlane;fontStyle=1;align=center;verticalAlign=top;childLayout=stackLayout;horizontal=1;startSize=26;horizontalStack=0;resizeParent=1;resizeParentMax=0;resizeLast=0;collapsible=1;marginBottom=0;whiteSpace=wrap;html=1;" parent="WIyWlLk6GJQsqaUBKTNV-1" vertex="1">
          <mxGeometry x="-270" y="966" width="160" height="112" as="geometry" />
        </mxCell>
        <mxCell id="YAt_v5fttDk_VhkoJ_Sc-52" value="- yearsView: listView" style="text;strokeColor=none;fillColor=none;align=left;verticalAlign=top;spacingLeft=4;spacingRight=4;overflow=hidden;rotatable=0;points=[[0,0.5],[1,0.5]];portConstraint=eastwest;whiteSpace=wrap;html=1;" vertex="1" parent="rWxM0mJ5KbsMlF8BmwfD-64">
          <mxGeometry y="26" width="160" height="26" as="geometry" />
        </mxCell>
        <mxCell id="rWxM0mJ5KbsMlF8BmwfD-65" value="- tracker: Tracker" style="text;strokeColor=none;fillColor=none;align=left;verticalAlign=top;spacingLeft=4;spacingRight=4;overflow=hidden;rotatable=0;points=[[0,0.5],[1,0.5]];portConstraint=eastwest;whiteSpace=wrap;html=1;" parent="rWxM0mJ5KbsMlF8BmwfD-64" vertex="1">
          <mxGeometry y="52" width="160" height="26" as="geometry" />
        </mxCell>
        <mxCell id="rWxM0mJ5KbsMlF8BmwfD-66" value="" style="line;strokeWidth=1;fillColor=none;align=left;verticalAlign=middle;spacingTop=-1;spacingLeft=3;spacingRight=3;rotatable=0;labelPosition=right;points=[];portConstraint=eastwest;strokeColor=inherit;" parent="rWxM0mJ5KbsMlF8BmwfD-64" vertex="1">
          <mxGeometry y="78" width="160" height="8" as="geometry" />
        </mxCell>
        <mxCell id="rWxM0mJ5KbsMlF8BmwfD-67" value="+ onYearClicked()" style="text;strokeColor=none;fillColor=none;align=left;verticalAlign=top;spacingLeft=4;spacingRight=4;overflow=hidden;rotatable=0;points=[[0,0.5],[1,0.5]];portConstraint=eastwest;whiteSpace=wrap;html=1;" parent="rWxM0mJ5KbsMlF8BmwfD-64" vertex="1">
          <mxGeometry y="86" width="160" height="26" as="geometry" />
        </mxCell>
        <mxCell id="rWxM0mJ5KbsMlF8BmwfD-68" value="AbstractLoader" style="swimlane;fontStyle=1;align=center;verticalAlign=top;childLayout=stackLayout;horizontal=1;startSize=26;horizontalStack=0;resizeParent=1;resizeParentMax=0;resizeLast=0;collapsible=1;marginBottom=0;whiteSpace=wrap;html=1;" parent="WIyWlLk6GJQsqaUBKTNV-1" vertex="1">
          <mxGeometry x="10" y="1370" width="220" height="130" as="geometry" />
        </mxCell>
        <mxCell id="rWxM0mJ5KbsMlF8BmwfD-71" value="+ load(File): TierList" style="text;strokeColor=none;fillColor=none;align=left;verticalAlign=top;spacingLeft=4;spacingRight=4;overflow=hidden;rotatable=0;points=[[0,0.5],[1,0.5]];portConstraint=eastwest;whiteSpace=wrap;html=1;" parent="rWxM0mJ5KbsMlF8BmwfD-68" vertex="1">
          <mxGeometry y="26" width="220" height="26" as="geometry" />
        </mxCell>
        <mxCell id="LHPl8H4hJXhwlcDixRHR-35" value="- parse(File): Map&amp;lt;String, List&amp;gt;" style="text;strokeColor=none;fillColor=none;align=left;verticalAlign=top;spacingLeft=4;spacingRight=4;overflow=hidden;rotatable=0;points=[[0,0.5],[1,0.5]];portConstraint=eastwest;whiteSpace=wrap;html=1;" parent="rWxM0mJ5KbsMlF8BmwfD-68" vertex="1">
          <mxGeometry y="52" width="220" height="26" as="geometry" />
        </mxCell>
        <mxCell id="LHPl8H4hJXhwlcDixRHR-36" value="- generate(Map&amp;lt;String, List&amp;gt;):TierList" style="text;strokeColor=none;fillColor=none;align=left;verticalAlign=top;spacingLeft=4;spacingRight=4;overflow=hidden;rotatable=0;points=[[0,0.5],[1,0.5]];portConstraint=eastwest;whiteSpace=wrap;html=1;" parent="rWxM0mJ5KbsMlF8BmwfD-68" vertex="1">
          <mxGeometry y="78" width="220" height="26" as="geometry" />
        </mxCell>
        <mxCell id="LHPl8H4hJXhwlcDixRHR-38" value="- validate(String): boolean" style="text;strokeColor=none;fillColor=none;align=left;verticalAlign=top;spacingLeft=4;spacingRight=4;overflow=hidden;rotatable=0;points=[[0,0.5],[1,0.5]];portConstraint=eastwest;whiteSpace=wrap;html=1;" parent="rWxM0mJ5KbsMlF8BmwfD-68" vertex="1">
          <mxGeometry y="104" width="220" height="26" as="geometry" />
        </mxCell>
        <mxCell id="rWxM0mJ5KbsMlF8BmwfD-81" style="edgeStyle=orthogonalEdgeStyle;rounded=0;orthogonalLoop=1;jettySize=auto;html=1;endArrow=block;endFill=0;" parent="WIyWlLk6GJQsqaUBKTNV-1" source="rWxM0mJ5KbsMlF8BmwfD-72" target="rWxM0mJ5KbsMlF8BmwfD-68" edge="1">
          <mxGeometry relative="1" as="geometry" />
        </mxCell>
        <mxCell id="rWxM0mJ5KbsMlF8BmwfD-72" value="CSVLoader" style="swimlane;fontStyle=1;align=center;verticalAlign=top;childLayout=stackLayout;horizontal=1;startSize=26;horizontalStack=0;resizeParent=1;resizeParentMax=0;resizeLast=0;collapsible=1;marginBottom=0;whiteSpace=wrap;html=1;" parent="WIyWlLk6GJQsqaUBKTNV-1" vertex="1">
          <mxGeometry x="-75" y="1590" width="170" height="104" as="geometry" />
        </mxCell>
        <mxCell id="LHPl8H4hJXhwlcDixRHR-66" value="- parse(File): ArrayList" style="text;strokeColor=none;fillColor=none;align=left;verticalAlign=top;spacingLeft=4;spacingRight=4;overflow=hidden;rotatable=0;points=[[0,0.5],[1,0.5]];portConstraint=eastwest;whiteSpace=wrap;html=1;" parent="rWxM0mJ5KbsMlF8BmwfD-72" vertex="1">
          <mxGeometry y="26" width="170" height="26" as="geometry" />
        </mxCell>
        <mxCell id="LHPl8H4hJXhwlcDixRHR-67" value="- generate(ArrayList):TierList" style="text;strokeColor=none;fillColor=none;align=left;verticalAlign=top;spacingLeft=4;spacingRight=4;overflow=hidden;rotatable=0;points=[[0,0.5],[1,0.5]];portConstraint=eastwest;whiteSpace=wrap;html=1;" parent="rWxM0mJ5KbsMlF8BmwfD-72" vertex="1">
          <mxGeometry y="52" width="170" height="26" as="geometry" />
        </mxCell>
        <mxCell id="rWxM0mJ5KbsMlF8BmwfD-75" value="- validate(String): boolean" style="text;strokeColor=none;fillColor=none;align=left;verticalAlign=top;spacingLeft=4;spacingRight=4;overflow=hidden;rotatable=0;points=[[0,0.5],[1,0.5]];portConstraint=eastwest;whiteSpace=wrap;html=1;" parent="rWxM0mJ5KbsMlF8BmwfD-72" vertex="1">
          <mxGeometry y="78" width="170" height="26" as="geometry" />
        </mxCell>
        <mxCell id="rWxM0mJ5KbsMlF8BmwfD-80" style="edgeStyle=orthogonalEdgeStyle;rounded=0;orthogonalLoop=1;jettySize=auto;html=1;endArrow=block;endFill=0;" parent="WIyWlLk6GJQsqaUBKTNV-1" source="rWxM0mJ5KbsMlF8BmwfD-76" target="rWxM0mJ5KbsMlF8BmwfD-68" edge="1">
          <mxGeometry relative="1" as="geometry" />
        </mxCell>
        <mxCell id="rWxM0mJ5KbsMlF8BmwfD-76" value="ExcelLoader" style="swimlane;fontStyle=1;align=center;verticalAlign=top;childLayout=stackLayout;horizontal=1;startSize=26;horizontalStack=0;resizeParent=1;resizeParentMax=0;resizeLast=0;collapsible=1;marginBottom=0;whiteSpace=wrap;html=1;" parent="WIyWlLk6GJQsqaUBKTNV-1" vertex="1">
          <mxGeometry x="145" y="1590" width="170" height="104" as="geometry" />
        </mxCell>
        <mxCell id="rWxM0mJ5KbsMlF8BmwfD-79" value="- parse(File): ArrayList" style="text;strokeColor=none;fillColor=none;align=left;verticalAlign=top;spacingLeft=4;spacingRight=4;overflow=hidden;rotatable=0;points=[[0,0.5],[1,0.5]];portConstraint=eastwest;whiteSpace=wrap;html=1;" parent="rWxM0mJ5KbsMlF8BmwfD-76" vertex="1">
          <mxGeometry y="26" width="170" height="26" as="geometry" />
        </mxCell>
        <mxCell id="LHPl8H4hJXhwlcDixRHR-68" value="- generate(ArrayList):TierList" style="text;strokeColor=none;fillColor=none;align=left;verticalAlign=top;spacingLeft=4;spacingRight=4;overflow=hidden;rotatable=0;points=[[0,0.5],[1,0.5]];portConstraint=eastwest;whiteSpace=wrap;html=1;" parent="rWxM0mJ5KbsMlF8BmwfD-76" vertex="1">
          <mxGeometry y="52" width="170" height="26" as="geometry" />
        </mxCell>
        <mxCell id="LHPl8H4hJXhwlcDixRHR-69" value="- validate(String): boolean" style="text;strokeColor=none;fillColor=none;align=left;verticalAlign=top;spacingLeft=4;spacingRight=4;overflow=hidden;rotatable=0;points=[[0,0.5],[1,0.5]];portConstraint=eastwest;whiteSpace=wrap;html=1;" parent="rWxM0mJ5KbsMlF8BmwfD-76" vertex="1">
          <mxGeometry y="78" width="170" height="26" as="geometry" />
        </mxCell>
        <mxCell id="Jdv2EIbuGDHVUuumFUXx-11" style="edgeStyle=orthogonalEdgeStyle;rounded=0;orthogonalLoop=1;jettySize=auto;html=1;endArrow=block;endFill=0;dashed=1;" parent="WIyWlLk6GJQsqaUBKTNV-1" source="Jdv2EIbuGDHVUuumFUXx-0" target="rWxM0mJ5KbsMlF8BmwfD-20" edge="1">
          <mxGeometry relative="1" as="geometry" />
        </mxCell>
        <mxCell id="Jdv2EIbuGDHVUuumFUXx-0" value="Flagger" style="swimlane;fontStyle=1;align=center;verticalAlign=top;childLayout=stackLayout;horizontal=1;startSize=26;horizontalStack=0;resizeParent=1;resizeParentMax=0;resizeLast=0;collapsible=1;marginBottom=0;whiteSpace=wrap;html=1;" parent="WIyWlLk6GJQsqaUBKTNV-1" vertex="1">
          <mxGeometry x="-300" y="430" width="190" height="216" as="geometry" />
        </mxCell>
        <mxCell id="Jdv2EIbuGDHVUuumFUXx-1" value="- flagSet: Map&amp;lt;String, String&amp;gt;" style="text;strokeColor=none;fillColor=none;align=left;verticalAlign=top;spacingLeft=4;spacingRight=4;overflow=hidden;rotatable=0;points=[[0,0.5],[1,0.5]];portConstraint=eastwest;whiteSpace=wrap;html=1;" parent="Jdv2EIbuGDHVUuumFUXx-0" vertex="1">
          <mxGeometry y="26" width="190" height="26" as="geometry" />
        </mxCell>
        <mxCell id="Jdv2EIbuGDHVUuumFUXx-3" value="" style="line;strokeWidth=1;fillColor=none;align=left;verticalAlign=middle;spacingTop=-1;spacingLeft=3;spacingRight=3;rotatable=0;labelPosition=right;points=[];portConstraint=eastwest;strokeColor=inherit;" parent="Jdv2EIbuGDHVUuumFUXx-0" vertex="1">
          <mxGeometry y="52" width="190" height="8" as="geometry" />
        </mxCell>
        <mxCell id="Jdv2EIbuGDHVUuumFUXx-4" value="+ Flagger()" style="text;strokeColor=none;fillColor=none;align=left;verticalAlign=top;spacingLeft=4;spacingRight=4;overflow=hidden;rotatable=0;points=[[0,0.5],[1,0.5]];portConstraint=eastwest;whiteSpace=wrap;html=1;" parent="Jdv2EIbuGDHVUuumFUXx-0" vertex="1">
          <mxGeometry y="60" width="190" height="26" as="geometry" />
        </mxCell>
        <mxCell id="YAt_v5fttDk_VhkoJ_Sc-49" value="+ createFilePath(): String&amp;nbsp;" style="text;strokeColor=none;fillColor=none;align=left;verticalAlign=top;spacingLeft=4;spacingRight=4;overflow=hidden;rotatable=0;points=[[0,0.5],[1,0.5]];portConstraint=eastwest;whiteSpace=wrap;html=1;" vertex="1" parent="Jdv2EIbuGDHVUuumFUXx-0">
          <mxGeometry y="86" width="190" height="26" as="geometry" />
        </mxCell>
        <mxCell id="YAt_v5fttDk_VhkoJ_Sc-35" value="+ createFlagSet(File): Map&amp;lt;&amp;gt;&amp;nbsp;" style="text;strokeColor=none;fillColor=none;align=left;verticalAlign=top;spacingLeft=4;spacingRight=4;overflow=hidden;rotatable=0;points=[[0,0.5],[1,0.5]];portConstraint=eastwest;whiteSpace=wrap;html=1;" vertex="1" parent="Jdv2EIbuGDHVUuumFUXx-0">
          <mxGeometry y="112" width="190" height="26" as="geometry" />
        </mxCell>
        <mxCell id="Jdv2EIbuGDHVUuumFUXx-14" value="+ getValue(String): String&amp;nbsp;" style="text;strokeColor=none;fillColor=none;align=left;verticalAlign=top;spacingLeft=4;spacingRight=4;overflow=hidden;rotatable=0;points=[[0,0.5],[1,0.5]];portConstraint=eastwest;whiteSpace=wrap;html=1;" parent="Jdv2EIbuGDHVUuumFUXx-0" vertex="1">
          <mxGeometry y="138" width="190" height="26" as="geometry" />
        </mxCell>
        <mxCell id="YAt_v5fttDk_VhkoJ_Sc-34" value="+ getKeySet(): List&amp;lt;String&amp;gt;" style="text;strokeColor=none;fillColor=none;align=left;verticalAlign=top;spacingLeft=4;spacingRight=4;overflow=hidden;rotatable=0;points=[[0,0.5],[1,0.5]];portConstraint=eastwest;whiteSpace=wrap;html=1;" vertex="1" parent="Jdv2EIbuGDHVUuumFUXx-0">
          <mxGeometry y="164" width="190" height="26" as="geometry" />
        </mxCell>
        <mxCell id="Jdv2EIbuGDHVUuumFUXx-5" value="+ hasKey(String): boolean&amp;nbsp;" style="text;strokeColor=none;fillColor=none;align=left;verticalAlign=top;spacingLeft=4;spacingRight=4;overflow=hidden;rotatable=0;points=[[0,0.5],[1,0.5]];portConstraint=eastwest;whiteSpace=wrap;html=1;" parent="Jdv2EIbuGDHVUuumFUXx-0" vertex="1">
          <mxGeometry y="190" width="190" height="26" as="geometry" />
        </mxCell>
        <mxCell id="Jdv2EIbuGDHVUuumFUXx-6" value="LoaderFactory" style="swimlane;fontStyle=1;align=center;verticalAlign=top;childLayout=stackLayout;horizontal=1;startSize=26;horizontalStack=0;resizeParent=1;resizeParentMax=0;resizeLast=0;collapsible=1;marginBottom=0;whiteSpace=wrap;html=1;" parent="WIyWlLk6GJQsqaUBKTNV-1" vertex="1">
          <mxGeometry x="10" y="1196" width="220" height="138" as="geometry">
            <mxRectangle x="10" y="1210" width="120" height="30" as="alternateBounds" />
          </mxGeometry>
        </mxCell>
        <mxCell id="YAt_v5fttDk_VhkoJ_Sc-37" value="- loaders: Map&amp;lt;String, AbstractLoader&amp;gt;" style="text;strokeColor=none;fillColor=none;align=left;verticalAlign=top;spacingLeft=4;spacingRight=4;overflow=hidden;rotatable=0;points=[[0,0.5],[1,0.5]];portConstraint=eastwest;whiteSpace=wrap;html=1;" vertex="1" parent="Jdv2EIbuGDHVUuumFUXx-6">
          <mxGeometry y="26" width="220" height="26" as="geometry" />
        </mxCell>
        <mxCell id="YAt_v5fttDk_VhkoJ_Sc-38" value="" style="line;strokeWidth=1;fillColor=none;align=left;verticalAlign=middle;spacingTop=-1;spacingLeft=3;spacingRight=3;rotatable=0;labelPosition=right;points=[];portConstraint=eastwest;strokeColor=inherit;" vertex="1" parent="Jdv2EIbuGDHVUuumFUXx-6">
          <mxGeometry y="52" width="220" height="8" as="geometry" />
        </mxCell>
        <mxCell id="YAt_v5fttDk_VhkoJ_Sc-39" value="+ LoaderFactory();" style="text;strokeColor=none;fillColor=none;align=left;verticalAlign=top;spacingLeft=4;spacingRight=4;overflow=hidden;rotatable=0;points=[[0,0.5],[1,0.5]];portConstraint=eastwest;whiteSpace=wrap;html=1;" vertex="1" parent="Jdv2EIbuGDHVUuumFUXx-6">
          <mxGeometry y="60" width="220" height="26" as="geometry" />
        </mxCell>
        <mxCell id="YAt_v5fttDk_VhkoJ_Sc-36" value="+ createLoader(File): AbstractLoader" style="text;strokeColor=none;fillColor=none;align=left;verticalAlign=top;spacingLeft=4;spacingRight=4;overflow=hidden;rotatable=0;points=[[0,0.5],[1,0.5]];portConstraint=eastwest;whiteSpace=wrap;html=1;" vertex="1" parent="Jdv2EIbuGDHVUuumFUXx-6">
          <mxGeometry y="86" width="220" height="26" as="geometry" />
        </mxCell>
        <mxCell id="Jdv2EIbuGDHVUuumFUXx-9" value="+ getExtension(File) String" style="text;strokeColor=none;fillColor=none;align=left;verticalAlign=top;spacingLeft=4;spacingRight=4;overflow=hidden;rotatable=0;points=[[0,0.5],[1,0.5]];portConstraint=eastwest;whiteSpace=wrap;html=1;" parent="Jdv2EIbuGDHVUuumFUXx-6" vertex="1">
          <mxGeometry y="112" width="220" height="26" as="geometry" />
        </mxCell>
        <mxCell id="Jdv2EIbuGDHVUuumFUXx-10" style="edgeStyle=orthogonalEdgeStyle;rounded=0;orthogonalLoop=1;jettySize=auto;html=1;endArrow=open;endFill=0;dashed=1;" parent="WIyWlLk6GJQsqaUBKTNV-1" source="rWxM0mJ5KbsMlF8BmwfD-68" target="7j_pHwnA5GzqrU9Y8oU0-10" edge="1">
          <mxGeometry relative="1" as="geometry">
            <Array as="points">
              <mxPoint x="400" y="1420" />
            </Array>
            <mxPoint x="210" y="1370" as="sourcePoint" />
          </mxGeometry>
        </mxCell>
        <mxCell id="LHPl8H4hJXhwlcDixRHR-53" value="Maakt instanties van" style="edgeLabel;html=1;align=center;verticalAlign=middle;resizable=0;points=[];" parent="Jdv2EIbuGDHVUuumFUXx-10" vertex="1" connectable="0">
          <mxGeometry x="0.0054" y="-4" relative="1" as="geometry">
            <mxPoint x="-24" y="-17" as="offset" />
          </mxGeometry>
        </mxCell>
        <mxCell id="LHPl8H4hJXhwlcDixRHR-13" style="edgeStyle=orthogonalEdgeStyle;rounded=0;orthogonalLoop=1;jettySize=auto;html=1;entryX=0.5;entryY=0;entryDx=0;entryDy=0;dashed=1;endArrow=open;endFill=0;" parent="WIyWlLk6GJQsqaUBKTNV-1" source="LHPl8H4hJXhwlcDixRHR-1" target="Jdv2EIbuGDHVUuumFUXx-6" edge="1">
          <mxGeometry relative="1" as="geometry" />
        </mxCell>
        <mxCell id="LHPl8H4hJXhwlcDixRHR-25" style="edgeStyle=orthogonalEdgeStyle;rounded=0;orthogonalLoop=1;jettySize=auto;html=1;entryX=0;entryY=0.5;entryDx=0;entryDy=0;" parent="WIyWlLk6GJQsqaUBKTNV-1" source="LHPl8H4hJXhwlcDixRHR-1" target="7j_pHwnA5GzqrU9Y8oU0-11" edge="1">
          <mxGeometry relative="1" as="geometry">
            <mxPoint x="340" y="1001" as="targetPoint" />
            <Array as="points">
              <mxPoint x="260" y="1001" />
              <mxPoint x="260" y="1001" />
            </Array>
          </mxGeometry>
        </mxCell>
        <mxCell id="LHPl8H4hJXhwlcDixRHR-26" style="edgeStyle=orthogonalEdgeStyle;rounded=0;orthogonalLoop=1;jettySize=auto;html=1;endArrow=none;endFill=0;startArrow=classic;startFill=1;" parent="WIyWlLk6GJQsqaUBKTNV-1" source="LHPl8H4hJXhwlcDixRHR-1" target="7j_pHwnA5GzqrU9Y8oU0-28" edge="1">
          <mxGeometry relative="1" as="geometry" />
        </mxCell>
        <mxCell id="YAt_v5fttDk_VhkoJ_Sc-0" value="Krijgt lijst van" style="edgeLabel;html=1;align=center;verticalAlign=middle;resizable=0;points=[];" vertex="1" connectable="0" parent="LHPl8H4hJXhwlcDixRHR-26">
          <mxGeometry x="0.0816" y="-5" relative="1" as="geometry">
            <mxPoint as="offset" />
          </mxGeometry>
        </mxCell>
        <mxCell id="YAt_v5fttDk_VhkoJ_Sc-20" value="1" style="edgeLabel;html=1;align=center;verticalAlign=middle;resizable=0;points=[];" vertex="1" connectable="0" parent="LHPl8H4hJXhwlcDixRHR-26">
          <mxGeometry x="-0.6515" y="-3" relative="1" as="geometry">
            <mxPoint x="-13" y="1" as="offset" />
          </mxGeometry>
        </mxCell>
        <mxCell id="YAt_v5fttDk_VhkoJ_Sc-21" value="1" style="edgeLabel;html=1;align=center;verticalAlign=middle;resizable=0;points=[];" vertex="1" connectable="0" parent="LHPl8H4hJXhwlcDixRHR-26">
          <mxGeometry x="0.6783" y="-1" relative="1" as="geometry">
            <mxPoint x="7" as="offset" />
          </mxGeometry>
        </mxCell>
        <mxCell id="LHPl8H4hJXhwlcDixRHR-1" value="Tracker" style="swimlane;fontStyle=1;align=center;verticalAlign=top;childLayout=stackLayout;horizontal=1;startSize=26;horizontalStack=0;resizeParent=1;resizeParentMax=0;resizeLast=0;collapsible=1;marginBottom=0;whiteSpace=wrap;html=1;points=[[0,0,0,0,0],[0,0.25,0,0,0],[0,0.5,0,0,0],[0,0.75,0,0,0],[0,1,0,0,0],[0.25,0,0,0,0],[0.25,1,0,0,0],[0.5,0,0,0,0],[0.5,1,0,0,0],[0.75,0,0,0,0],[0.75,1,0,0,0],[1,0,0,0,0],[1,0.25,0,0,0],[1,0.37,0,0,0],[1,0.5,0,0,0],[1,0.75,0,0,0],[1,1,0,0,0]];" parent="WIyWlLk6GJQsqaUBKTNV-1" vertex="1">
          <mxGeometry x="20" y="888" width="200" height="268" as="geometry" />
        </mxCell>
        <mxCell id="LHPl8H4hJXhwlcDixRHR-15" value="&lt;u&gt;- currentList: ITierList&lt;/u&gt;" style="text;strokeColor=none;fillColor=none;align=left;verticalAlign=top;spacingLeft=4;spacingRight=4;overflow=hidden;rotatable=0;points=[[0,0.5],[1,0.5]];portConstraint=eastwest;whiteSpace=wrap;html=1;" parent="LHPl8H4hJXhwlcDixRHR-1" vertex="1">
          <mxGeometry y="26" width="200" height="26" as="geometry" />
        </mxCell>
        <mxCell id="LHPl8H4hJXhwlcDixRHR-4" value="- Lists: ArrayList" style="text;strokeColor=none;fillColor=none;align=left;verticalAlign=top;spacingLeft=4;spacingRight=4;overflow=hidden;rotatable=0;points=[[0,0.5],[1,0.5]];portConstraint=eastwest;whiteSpace=wrap;html=1;" parent="LHPl8H4hJXhwlcDixRHR-1" vertex="1">
          <mxGeometry y="52" width="200" height="26" as="geometry" />
        </mxCell>
        <mxCell id="LHPl8H4hJXhwlcDixRHR-5" value="" style="line;strokeWidth=1;fillColor=none;align=left;verticalAlign=middle;spacingTop=-1;spacingLeft=3;spacingRight=3;rotatable=0;labelPosition=right;points=[];portConstraint=eastwest;strokeColor=inherit;" parent="LHPl8H4hJXhwlcDixRHR-1" vertex="1">
          <mxGeometry y="78" width="200" height="8" as="geometry" />
        </mxCell>
        <mxCell id="LHPl8H4hJXhwlcDixRHR-6" value="+ Tracker()" style="text;strokeColor=none;fillColor=none;align=left;verticalAlign=top;spacingLeft=4;spacingRight=4;overflow=hidden;rotatable=0;points=[[0,0.5],[1,0.5]];portConstraint=eastwest;whiteSpace=wrap;html=1;" parent="LHPl8H4hJXhwlcDixRHR-1" vertex="1">
          <mxGeometry y="86" width="200" height="26" as="geometry" />
        </mxCell>
        <mxCell id="YAt_v5fttDk_VhkoJ_Sc-50" value="&lt;u&gt;+ setCurrentList(TierList)&lt;/u&gt;" style="text;strokeColor=none;fillColor=none;align=left;verticalAlign=top;spacingLeft=4;spacingRight=4;overflow=hidden;rotatable=0;points=[[0,0.5],[1,0.5]];portConstraint=eastwest;whiteSpace=wrap;html=1;" vertex="1" parent="LHPl8H4hJXhwlcDixRHR-1">
          <mxGeometry y="112" width="200" height="26" as="geometry" />
        </mxCell>
        <mxCell id="YAt_v5fttDk_VhkoJ_Sc-51" value="+ findList(String): TierList" style="text;strokeColor=none;fillColor=none;align=left;verticalAlign=top;spacingLeft=4;spacingRight=4;overflow=hidden;rotatable=0;points=[[0,0.5],[1,0.5]];portConstraint=eastwest;whiteSpace=wrap;html=1;" vertex="1" parent="LHPl8H4hJXhwlcDixRHR-1">
          <mxGeometry y="138" width="200" height="26" as="geometry" />
        </mxCell>
        <mxCell id="LHPl8H4hJXhwlcDixRHR-24" value="+ getCurrentList(): ITierList" style="text;strokeColor=none;fillColor=none;align=left;verticalAlign=top;spacingLeft=4;spacingRight=4;overflow=hidden;rotatable=0;points=[[0,0.5],[1,0.5]];portConstraint=eastwest;whiteSpace=wrap;html=1;" parent="LHPl8H4hJXhwlcDixRHR-1" vertex="1">
          <mxGeometry y="164" width="200" height="26" as="geometry" />
        </mxCell>
        <mxCell id="YAt_v5fttDk_VhkoJ_Sc-53" value="+ createList(String label): TierList" style="text;strokeColor=none;fillColor=none;align=left;verticalAlign=top;spacingLeft=4;spacingRight=4;overflow=hidden;rotatable=0;points=[[0,0.5],[1,0.5]];portConstraint=eastwest;whiteSpace=wrap;html=1;" vertex="1" parent="LHPl8H4hJXhwlcDixRHR-1">
          <mxGeometry y="190" width="200" height="26" as="geometry" />
        </mxCell>
        <mxCell id="LHPl8H4hJXhwlcDixRHR-11" value="+ clearList(String)" style="text;strokeColor=none;fillColor=none;align=left;verticalAlign=top;spacingLeft=4;spacingRight=4;overflow=hidden;rotatable=0;points=[[0,0.5],[1,0.5]];portConstraint=eastwest;whiteSpace=wrap;html=1;" parent="LHPl8H4hJXhwlcDixRHR-1" vertex="1">
          <mxGeometry y="216" width="200" height="26" as="geometry" />
        </mxCell>
        <mxCell id="LHPl8H4hJXhwlcDixRHR-12" value="+ generate(File): TierList" style="text;strokeColor=none;fillColor=none;align=left;verticalAlign=top;spacingLeft=4;spacingRight=4;overflow=hidden;rotatable=0;points=[[0,0.5],[1,0.5]];portConstraint=eastwest;whiteSpace=wrap;html=1;" parent="LHPl8H4hJXhwlcDixRHR-1" vertex="1">
          <mxGeometry y="242" width="200" height="26" as="geometry" />
        </mxCell>
        <mxCell id="LHPl8H4hJXhwlcDixRHR-34" style="edgeStyle=orthogonalEdgeStyle;rounded=0;orthogonalLoop=1;jettySize=auto;html=1;endArrow=block;endFill=0;dashed=1;" parent="WIyWlLk6GJQsqaUBKTNV-1" source="LHPl8H4hJXhwlcDixRHR-29" target="rWxM0mJ5KbsMlF8BmwfD-47" edge="1">
          <mxGeometry relative="1" as="geometry" />
        </mxCell>
        <mxCell id="LHPl8H4hJXhwlcDixRHR-29" value="AbstractPusher" style="swimlane;fontStyle=1;align=center;verticalAlign=top;childLayout=stackLayout;horizontal=1;startSize=26;horizontalStack=0;resizeParent=1;resizeParentMax=0;resizeLast=0;collapsible=1;marginBottom=0;whiteSpace=wrap;html=1;" parent="WIyWlLk6GJQsqaUBKTNV-1" vertex="1">
          <mxGeometry x="1035" y="1426" width="160" height="130" as="geometry" />
        </mxCell>
        <mxCell id="LHPl8H4hJXhwlcDixRHR-32" value="+ push(TierList): boolean" style="text;strokeColor=none;fillColor=none;align=left;verticalAlign=top;spacingLeft=4;spacingRight=4;overflow=hidden;rotatable=0;points=[[0,0.5],[1,0.5]];portConstraint=eastwest;whiteSpace=wrap;html=1;" parent="LHPl8H4hJXhwlcDixRHR-29" vertex="1">
          <mxGeometry y="26" width="160" height="26" as="geometry" />
        </mxCell>
        <mxCell id="YAt_v5fttDk_VhkoJ_Sc-1" value="- parse(TierList): boolean" style="text;strokeColor=none;fillColor=none;align=left;verticalAlign=top;spacingLeft=4;spacingRight=4;overflow=hidden;rotatable=0;points=[[0,0.5],[1,0.5]];portConstraint=eastwest;whiteSpace=wrap;html=1;" vertex="1" parent="LHPl8H4hJXhwlcDixRHR-29">
          <mxGeometry y="52" width="160" height="26" as="geometry" />
        </mxCell>
        <mxCell id="YAt_v5fttDk_VhkoJ_Sc-48" value="- locate(String label): Object" style="text;strokeColor=none;fillColor=none;align=left;verticalAlign=top;spacingLeft=4;spacingRight=4;overflow=hidden;rotatable=0;points=[[0,0.5],[1,0.5]];portConstraint=eastwest;whiteSpace=wrap;html=1;" vertex="1" parent="LHPl8H4hJXhwlcDixRHR-29">
          <mxGeometry y="78" width="160" height="26" as="geometry" />
        </mxCell>
        <mxCell id="YAt_v5fttDk_VhkoJ_Sc-2" value="- write(Row): boolean" style="text;strokeColor=none;fillColor=none;align=left;verticalAlign=top;spacingLeft=4;spacingRight=4;overflow=hidden;rotatable=0;points=[[0,0.5],[1,0.5]];portConstraint=eastwest;whiteSpace=wrap;html=1;" vertex="1" parent="LHPl8H4hJXhwlcDixRHR-29">
          <mxGeometry y="104" width="160" height="26" as="geometry" />
        </mxCell>
        <mxCell id="LHPl8H4hJXhwlcDixRHR-51" style="edgeStyle=orthogonalEdgeStyle;rounded=0;orthogonalLoop=1;jettySize=auto;html=1;entryX=0.5;entryY=0;entryDx=0;entryDy=0;dashed=1;endArrow=block;endFill=0;" parent="WIyWlLk6GJQsqaUBKTNV-1" source="LHPl8H4hJXhwlcDixRHR-43" target="rWxM0mJ5KbsMlF8BmwfD-40" edge="1">
          <mxGeometry relative="1" as="geometry" />
        </mxCell>
        <mxCell id="YAt_v5fttDk_VhkoJ_Sc-42" style="edgeStyle=orthogonalEdgeStyle;rounded=0;orthogonalLoop=1;jettySize=auto;html=1;entryX=0;entryY=0.5;entryDx=0;entryDy=0;" edge="1" parent="WIyWlLk6GJQsqaUBKTNV-1" source="LHPl8H4hJXhwlcDixRHR-43" target="rWxM0mJ5KbsMlF8BmwfD-48">
          <mxGeometry relative="1" as="geometry" />
        </mxCell>
        <mxCell id="YAt_v5fttDk_VhkoJ_Sc-43" value="Geeft door aan" style="edgeLabel;html=1;align=center;verticalAlign=middle;resizable=0;points=[];" vertex="1" connectable="0" parent="YAt_v5fttDk_VhkoJ_Sc-42">
          <mxGeometry x="-0.5201" relative="1" as="geometry">
            <mxPoint as="offset" />
          </mxGeometry>
        </mxCell>
        <mxCell id="YAt_v5fttDk_VhkoJ_Sc-44" value="0..*" style="edgeLabel;html=1;align=center;verticalAlign=middle;resizable=0;points=[];" vertex="1" connectable="0" parent="YAt_v5fttDk_VhkoJ_Sc-42">
          <mxGeometry x="-0.9095" y="-1" relative="1" as="geometry">
            <mxPoint x="-19" as="offset" />
          </mxGeometry>
        </mxCell>
        <mxCell id="YAt_v5fttDk_VhkoJ_Sc-45" value="0..*" style="edgeLabel;html=1;align=center;verticalAlign=middle;resizable=0;points=[];" vertex="1" connectable="0" parent="YAt_v5fttDk_VhkoJ_Sc-42">
          <mxGeometry x="0.8299" y="-1" relative="1" as="geometry">
            <mxPoint x="11" y="-14" as="offset" />
          </mxGeometry>
        </mxCell>
        <mxCell id="LHPl8H4hJXhwlcDixRHR-43" value="EventManager" style="swimlane;fontStyle=1;align=center;verticalAlign=top;childLayout=stackLayout;horizontal=1;startSize=26;horizontalStack=0;resizeParent=1;resizeParentMax=0;resizeLast=0;collapsible=1;marginBottom=0;whiteSpace=wrap;html=1;" parent="WIyWlLk6GJQsqaUBKTNV-1" vertex="1">
          <mxGeometry x="710" y="1053" width="200" height="138" as="geometry" />
        </mxCell>
        <mxCell id="LHPl8H4hJXhwlcDixRHR-44" value="- Listeners: Map&amp;lt;String, ArrayList&amp;gt;" style="text;strokeColor=none;fillColor=none;align=left;verticalAlign=top;spacingLeft=4;spacingRight=4;overflow=hidden;rotatable=0;points=[[0,0.5],[1,0.5]];portConstraint=eastwest;whiteSpace=wrap;html=1;" parent="LHPl8H4hJXhwlcDixRHR-43" vertex="1">
          <mxGeometry y="26" width="200" height="26" as="geometry" />
        </mxCell>
        <mxCell id="LHPl8H4hJXhwlcDixRHR-46" value="" style="line;strokeWidth=1;fillColor=none;align=left;verticalAlign=middle;spacingTop=-1;spacingLeft=3;spacingRight=3;rotatable=0;labelPosition=right;points=[];portConstraint=eastwest;strokeColor=inherit;" parent="LHPl8H4hJXhwlcDixRHR-43" vertex="1">
          <mxGeometry y="52" width="200" height="8" as="geometry" />
        </mxCell>
        <mxCell id="LHPl8H4hJXhwlcDixRHR-47" value="+ addListener(Observer, String)" style="text;strokeColor=none;fillColor=none;align=left;verticalAlign=top;spacingLeft=4;spacingRight=4;overflow=hidden;rotatable=0;points=[[0,0.5],[1,0.5]];portConstraint=eastwest;whiteSpace=wrap;html=1;" parent="LHPl8H4hJXhwlcDixRHR-43" vertex="1">
          <mxGeometry y="60" width="200" height="26" as="geometry" />
        </mxCell>
        <mxCell id="LHPl8H4hJXhwlcDixRHR-59" value="+ removeListener(Observer, String)" style="text;strokeColor=none;fillColor=none;align=left;verticalAlign=top;spacingLeft=4;spacingRight=4;overflow=hidden;rotatable=0;points=[[0,0.5],[1,0.5]];portConstraint=eastwest;whiteSpace=wrap;html=1;" parent="LHPl8H4hJXhwlcDixRHR-43" vertex="1">
          <mxGeometry y="86" width="200" height="26" as="geometry" />
        </mxCell>
        <mxCell id="LHPl8H4hJXhwlcDixRHR-48" value="+ removeListener(Observer, String)" style="text;strokeColor=none;fillColor=none;align=left;verticalAlign=top;spacingLeft=4;spacingRight=4;overflow=hidden;rotatable=0;points=[[0,0.5],[1,0.5]];portConstraint=eastwest;whiteSpace=wrap;html=1;" parent="LHPl8H4hJXhwlcDixRHR-43" vertex="1">
          <mxGeometry y="112" width="200" height="26" as="geometry" />
        </mxCell>
      </root>
    </mxGraphModel>
  </diagram>
</mxfile>
